<svg width="189" height="189" xmlns="http://www.w3.org/2000/svg" xmlns:xlink="http://www.w3.org/1999/xlink" overflow="hidden"><defs><clipPath id="clip0"><rect x="759" y="469" width="189" height="189"/></clipPath></defs><g clip-path="url(#clip0)" transform="translate(-759 -469)"><path d="M819.047 543.812 932.447 523.731 926.934 492.625 771.994 520.188 777.112 549.128 777.506 626.5C777.506 630.831 781.05 634.375 785.381 634.375L927.131 634.375C931.463 634.375 935.006 630.831 935.006 626.5L935.006 543.812 819.047 543.812ZM907.444 504.044 920.634 501.681 921.028 504.044 910.2 519.4 894.844 522.353 907.444 504.044ZM875.55 509.753 891.103 506.997 878.306 525.306 862.753 528.062 875.55 509.753ZM843.459 515.463 859.013 512.706 846.216 531.016 830.662 533.772 843.459 515.463ZM811.566 521.172 827.119 518.416 814.322 536.725 798.769 539.481 811.566 521.172ZM795.028 524.125 783.609 540.466 781.05 526.487 795.028 524.125ZM903.506 593.031 809.006 593.031 809.006 569.406 903.506 569.406 903.506 593.031Z"/></g></svg>